<svg width="28" height="56" viewBox="0 0 28 56" fill="none" xmlns="http://www.w3.org/2000/svg">
<path d="M8.33336 19.5H19.6667M8.33336 32.25C6.17275 33.4974 4.48413 35.4229 3.52939 37.7279C2.57465 40.0328 2.40715 42.5884 3.05286 44.9982C3.69858 47.4081 5.12143 49.5375 7.10073 51.0563C9.08003 52.5751 11.5052 53.3983 14 53.3983C16.4949 53.3983 18.92 52.5751 20.8993 51.0563C22.8786 49.5375 24.3015 47.4081 24.9472 44.9982C25.5929 42.5884 25.4254 40.0328 24.4707 37.7279C23.5159 35.4229 21.8273 33.4974 19.6667 32.25V8.16667C19.6667 6.66377 19.0697 5.22243 18.007 4.15973C16.9443 3.09702 15.5029 2.5 14 2.5C12.4971 2.5 11.0558 3.09702 9.99309 4.15973C8.93038 5.22243 8.33336 6.66377 8.33336 8.16667V32.25Z" stroke="url(#paint0_linear_23_183)" stroke-width="4" stroke-linecap="round" stroke-linejoin="round"/>
<defs>
<linearGradient id="paint0_linear_23_183" x1="2.66669" y1="27.9491" x2="25.3334" y2="27.9491" gradientUnits="userSpaceOnUse">
<stop stop-color="#2AF598"/>
<stop offset="1" stop-color="#009EFD"/>
</linearGradient>
</defs>
</svg>
