<svg width="56" height="59" viewBox="0 0 56 59" fill="none" xmlns="http://www.w3.org/2000/svg">
<path d="M28.1875 26.6875C28.1875 32 25 39.4375 25 39.4375M26.0625 28.8125C26.0625 28.8125 29.25 20.3125 21.8125 13.9375C14.375 7.56253 2.6875 9.68753 2.6875 9.68753C2.6875 9.68753 2.6875 18.1875 9.0625 24.5625C15.4375 30.9375 26.0625 28.8125 26.0625 28.8125ZM30.3125 22.4375C30.3125 22.4375 27.125 13.9375 34.5625 7.56253C42 1.18753 53.6875 3.31253 53.6875 3.31253C53.6875 3.31253 53.6875 11.8125 47.3125 18.1875C40.9375 24.5625 30.3125 22.4375 30.3125 22.4375ZM13.3125 37.3125H40.9375C40.9375 37.3125 43.0625 56.4375 27.125 56.4375C11.1875 56.4375 13.3125 37.3125 13.3125 37.3125Z" stroke="url(#paint0_linear_23_181)" stroke-width="4" stroke-linecap="round" stroke-linejoin="round"/>
<defs>
<linearGradient id="paint0_linear_23_181" x1="2.6875" y1="29.705" x2="53.6875" y2="29.705" gradientUnits="userSpaceOnUse">
<stop stop-color="#2AF598"/>
<stop offset="1" stop-color="#009EFD"/>
</linearGradient>
</defs>
</svg>
